<?xml version="1.0" standalone="no"?>
<!DOCTYPE svg PUBLIC "-//W3C//DTD SVG 1.1//EN" "http://www.w3.org/Graphics/SVG/1.1/DTD/svg11.dtd">
<svg version="1.1" xmlns="http://www.w3.org/2000/svg" xmlns:xlink="http://www.w3.org/1999/xlink" fill="#fff" width="202.734375" height="200" viewBox="0 0 1038 1024">
    <path d="M941.176 157.501l0 0c-26.234-26.234-69.08-26.234-95.313 0l-296.882 296.882 95.313 95.313 296.882-296.882c26.234-26.234 26.234-69.08 0-95.313zM519.451 562.617c-1.846 9.756 6.724 18.324 16.611 16.611l96.631-17.797-95.313-95.313-17.929 96.5zM853.834 928.857c0 17.439-14.24 31.679-31.679 31.679l-652.773 0c-17.439 0-31.679-14.24-31.679-31.679l0-791.007c0-17.439 14.24-31.679 31.679-31.679l652.773 0c11.04 0 20.639 5.6 26.239 14.079l34.238-34.078c-14.559-17.12-36.158-27.998-60.477-27.998l-652.773 0c-43.838 0-79.517 35.678-79.517 79.676l0 791.168c0 43.838 35.678 79.676 79.676 79.676l652.773 0c43.838 0 79.676-35.678 79.676-79.676l0-600.935-47.998 47.998 0 552.777zM746.638 697.506l-501.579 0c-10.56 0-19.199 8.64-19.199 19.199l0 11.999c0 10.56 8.64 19.199 19.199 19.199l501.579 0c10.56 0 19.199-8.64 19.199-19.199l0-11.999c0-10.56-8.64-19.199-19.199-19.199zM650.642 318.802l-405.583 0c-10.56 0-19.199 8.64-19.199 19.199l0 11.999c0 10.56 8.64 19.199 19.199 19.199l355.185 0 50.398-50.398zM649.362 577.671l-130.715 24.159c-13.28 2.4-24.799-9.12-22.399-22.399l1.44-8.16-252.629 0c-10.56 0-19.199 8.64-19.199 19.199l0 11.999c0 10.56 8.64 19.199 19.199 19.199l501.579 0c10.56 0 19.199-8.64 19.199-19.199l0-11.999c0-10.56-8.64-19.199-19.199-19.199l-103.675 0 6.399 6.399zM245.058 495.435l232.47 0 50.398-50.398-282.868 0c-10.56 0-19.199 8.64-19.199 19.199l0 11.999c0 10.56 8.64 19.199 19.199 19.199zM765.837 476.235l0-11.199-30.398 30.398 11.199 0c10.56 0 19.199-8.64 19.199-19.199z" />
</svg>
