<?xml version="1.0" encoding="utf-8"?>
<!DOCTYPE svg PUBLIC "-//W3C//DTD SVG 1.1//EN" "http://www.w3.org/Graphics/SVG/1.1/DTD/svg11.dtd">
<svg version="1.1" id="Capa_1" xmlns="http://www.w3.org/2000/svg" xmlns:xlink="http://www.w3.org/1999/xlink" fill="#ccc" x="0px" y="0px" width="25.527px" height="21.711px" viewBox="0 0 25.527 21.711" enable-background="new 0 0 25.527 21.711" xml:space="preserve">
    <path d="M8.602,13.279l-1.466,5.119l5.12-1.465l9.878-9.877L18.48,3.401L8.602,13.279z M18.979,5.632
        c0.216,0.217,0.216,0.571,0,0.787l-7.723,7.722c-0.217,0.217-0.57,0.217-0.786,0c-0.217-0.217-0.217-0.57,0-0.787l7.722-7.722
        C18.409,5.416,18.763,5.416,18.979,5.632z M25.526,3.645L23.11,6.062l-3.646-3.645L21.882,0L25.526,3.645z M15.471,15.984
        l1.813-1.812v7.539H0V4.657l5.122-4.35h12.163v2.288l-1.813,1.844V1.838H7.065v4.487H1.812v13.856h13.659V15.984z" />
</svg>
