<?xml version="1.0" standalone="no"?>
<!DOCTYPE svg PUBLIC "-//W3C//DTD SVG 1.1//EN" "http://www.w3.org/Graphics/SVG/1.1/DTD/svg11.dtd">
<svg version="1.1" xmlns="http://www.w3.org/2000/svg" xmlns:xlink="http://www.w3.org/1999/xlink" fill="#fff" width="200" height="200" viewBox="0 0 1024 1024">
    <path d="M283.952 505.216m-25.12 0a1.57 1.57 0 1 0 50.24 0 1.57 1.57 0 1 0-50.24 0Z" />
    <path d="M259.168 507.312c2.528-33.312 10.128-65.184 21.824-95.024-3.36-3.984-5.136-9.12-4.576-15.248 0 0-23.888-200.592 21.024-230.688 34.72-23.264 158.768 22.688 213.44 44.816 26-6.448 53.056-10.224 81.056-10.224 26.032 0 51.248 3.248 75.584 8.848 56.512-22.16 179.824-66.224 214.64-43.52 45.584 29.76 21.344 228.016 21.344 228.016 0.432 4.704-0.592 8.8-2.592 12.288 16.096 38.848 25.088 81.312 25.088 125.904C926 715.568 776.432 864 591.936 864c-134 0-249.344-78.432-302.544-191.488-17.728-37.168-48.384-60.176-65.728-68.848-51.008-30.112-122.816 3.584-111.728 88.928 3.552 82.608 110.272 99.328 99.408 21.28 1.328-26.624 35.856-35.888 47.696-2.864 34.416 96.112-117.392 152.576-177.616 48.336C21.2 655.104 105.472 483.52 256.848 565.232c31.824 18.432 65.536 68.096 82.672 100.832 47.664 90.112 142.752 151.664 252.416 151.664 157.456 0 285.088-126.672 285.088-282.944 0-156.256-127.648-282.944-285.088-282.944-146.944 0-267.936 110.336-283.408 252.112C292.912 506.08 278.304 508.496 259.168 507.312zM332 211.536c-21.936 16.016-11.744 118.528-10.816 127.392 31.152-42.96 72.288-78.224 120.192-102.336C413.648 224.368 349.824 198.528 332 211.536zM847.056 210.944c-17.6-12.512-79.568 11.408-108.816 23.84 47.52 23.04 88.592 56.848 120.176 98.352C860.432 312.272 867.52 225.472 847.056 210.944z" />
</svg>
